<?xml version="1.0" encoding="utf-8"?>
<!-- Generator: Adobe Illustrator 23.0.1, SVG Export Plug-In . SVG Version: 6.00 Build 0)  -->
<svg version="1.1" id="Layer_1" xmlns="http://www.w3.org/2000/svg" xmlns:xlink="http://www.w3.org/1999/xlink" x="0px" y="0px"
	 viewBox="0 0 200 200" style="enable-background:new 0 0 200 200;" xml:space="preserve">
<style type="text/css">
	.st0{fill:#000000;}
</style>
<g>
	<g>
		<path class="st0" d="M52.75,138.6c0,6.2-1.54,11.28-4.61,15.25c-3.07,3.97-7.52,7.23-13.33,9.79l-2.36-3.83
			c1.85-1.25,3.36-2.71,4.52-4.37c1.17-1.66,2.08-3.46,2.73-5.42c0.65-1.96,1.1-4.01,1.35-6.16c0.24-2.15,0.37-4.36,0.37-6.64V55.11
			h11.33V138.6z"/>
		<path class="st0" d="M156.14,138.6l-6.85-63.68l-29.35,63.68h-5.22L82.83,74.92l-5.63,63.68h-7.42l8.56-84.07h6.85l34,68.57
			l31.88-68.57h6.93l9.29,84.07H156.14z"/>
	</g>
	<polygon class="st0" points="14.36,36.37 14.36,148.16 14.36,154.83 14.36,155.13 28.35,155.13 28.35,148.16 21.32,148.16 
		21.32,43.33 178.68,43.33 178.68,148.16 62.92,148.16 62.92,155.13 178.68,155.13 185.44,155.13 185.64,155.13 185.64,36.37 	"/>
</g>
</svg>
